{"title":"Taur Mitran Di 2012","uid":7443701,"size":724673241,"categoryP":"video","categoryS":"movies","magnet":"?xt=urn:btih:9e96d438d1d38d5258ccd6d53b6ef0d0d8d53a6c&amp;dn=Taur+Mitran+Di+2012&amp;tr=udp%3A%2F%2Ftracker.openbittorrent.com%3A80&amp;tr=udp%3A%2F%2Fopen.demonii.com%3A1337&amp;tr=udp%3A%2F%2Ftracker.coppersurfer.tk%3A6969&amp;tr=udp%3A%2F%2Fexodus.desync.com%3A6969","seeders":0,"leechers":1,"uploader":"djsunny1986","files":8,"time":1342296390,"description":"Taur Mitran Di 2012\nPunjabi Movie\ndvd scr\n\n\nFormat                                   : Matroska\nFormat version                           : Version 2\nFile size                                : 691 MiB\nDuration                                 : 2h 15mn\nOverall bit rate                         : 714 Kbps\n\nVideo\nID                                       : 1\nFormat                                   : MPEG-4 Visual\nFormat profile                           : Advanced Simple@L5\nFormat settings, BVOP                    : Yes\nFormat settings, QPel                    : No\nFormat settings, GMC                     : No warppoints\nFormat settings, Matrix                  : Default (H.263)\nCodec ID                                 : XVID\nCodec ID/Hint                            : XviD\nDuration                                 : 2h 15mn\nBit rate                                 : 604 Kbps\nWidth                                    : 608 pixels\nHeight                                   : 272 pixels\nDisplay aspect ratio                     : 2.25:1\nFrame rate                               : 23.976 fps\nColor space                              : YUV\nChroma subsampling                       : 4:2:0\nBit depth                                : 8 bits\nScan type                                : Progressive\nCompression mode                         : Lossy\nBits/(Pixel*Frame)                       : 0.152\nStream size                              : 584 MiB (85%)\nTitle                                    :\nWriting library                          : XviD 1.2.1 (UTC 2008-12-04)\nDefault                                  : Yes\nForced                                   : No\n\nAudio\nID                                       : 2\nFormat                                   : MPEG Audio\nFormat version                           : Version 1\nFormat profile                           : Layer 3\nMode                                     : Joint stereo\nMode extension                           : MS Stereo\nMuxing mode                              : Header stripping\nCodec ID                                 : A_MPEG/L3\nCodec ID/Hint                            : MP3\nDuration                                 : 2h 15mn\nBit rate mode                            : Constant\nBit rate                                 : 96.0 Kbps\nChannel(s)                               : 2 channels\nSampling rate                            : 32.0 KHz\nCompression mode                         : Lossy\nStream size                              : 92.8 MiB (13%)\n\n\nScreens: &lt;a href=&quot;\nhttp://i.minus.com/iA7icNqmiggOQ.jpg&quot; rel=&quot;nofollow&quot; target=&quot;_NEW&quot;&gt;\nhttp://i.minus.com/iA7icNqmiggOQ.jpg&lt;/a&gt; &lt;a href=&quot;\nhttp://i.minus.com/ibukT1oOnKRJ2p.jpg&quot; rel=&quot;nofollow&quot; target=&quot;_NEW&quot;&gt;\nhttp://i.minus.com/ibukT1oOnKRJ2p.jpg&lt;/a&gt; &lt;a href=&quot;\nhttp://i.minus.com/iM9sSpNr3l1eX.jpg&quot; rel=&quot;nofollow&quot; target=&quot;_NEW&quot;&gt;\nhttp://i.minus.com/iM9sSpNr3l1eX.jpg&lt;/a&gt; &lt;a href=&quot;\nhttp://i.minus.com/ibgiKxGOCQ9Z1W.jpg&quot; rel=&quot;nofollow&quot; target=&quot;_NEW&quot;&gt;\nhttp://i.minus.com/ibgiKxGOCQ9Z1W.jpg&lt;/a&gt; &lt;a href=&quot;\nhttp://i.minus.com/iYGzRoLNx5Gun.jpg&quot; rel=&quot;nofollow&quot; target=&quot;_NEW&quot;&gt;\nhttp://i.minus.com/iYGzRoLNx5Gun.jpg&lt;/a&gt;\n\ncredit:ICTV","torrent":{"xt":"urn:btih:9e96d438d1d38d5258ccd6d53b6ef0d0d8d53a6c","amp;dn":"Taur+Mitran+Di+2012","amp;tr":["udp%3A%2F%2Ftracker.openbittorrent.com%3A80","udp%3A%2F%2Fopen.demonii.com%3A1337","udp%3A%2F%2Ftracker.coppersurfer.tk%3A6969","udp%3A%2F%2Fexodus.desync.com%3A6969"],"infoHash":"9e96d438d1d38d5258ccd6d53b6ef0d0d8d53a6c","infoHashBuffer":{"type":"Buffer","data":[158,150,212,56,209,211,141,82,88,204,214,213,59,110,240,208,216,213,58,108]},"announce":[],"urlList":[]}}